<svg width="125" height="56" viewBox="0 0 125 56" fill="none" xmlns="http://www.w3.org/2000/svg">
<path d="M5.93277 16.4136C7.34583 15.6158 8.83561 15.1234 10.4021 14.9427C11.9686 14.7619 13.484 14.8679 14.9482 15.2481C16.4124 15.6283 17.7807 16.2765 19.0339 17.1927C20.2871 18.1089 21.3293 19.2495 22.1541 20.6269C22.9597 22.0043 23.4521 23.4565 23.6375 24.9836C23.8229 26.5106 23.7142 27.9877 23.3242 29.415C22.9342 30.8423 22.2628 32.1761 21.3165 33.3977C20.3702 34.6193 19.1937 35.629 17.7807 36.4143C16.9047 36.9067 16.0096 37.2807 15.0824 37.5362C14.1553 37.7918 13.2218 37.9351 12.2755 37.9725C11.3292 38.0099 10.4021 37.9289 9.48139 37.7419C8.56067 37.5549 7.67831 37.262 6.82153 36.8756V29.7703C7.25631 30.4185 7.79979 30.9483 8.44558 31.3534C9.09136 31.7647 9.77551 32.0452 10.5044 32.2073C11.2333 32.3693 11.975 32.4005 12.7295 32.2945C13.484 32.1886 14.2193 31.9455 14.9162 31.5528C15.6515 31.1415 16.2589 30.6242 16.7385 29.9947C17.218 29.3652 17.5569 28.6858 17.7615 27.9503C17.9661 27.2149 18.0173 26.4669 17.9213 25.6879C17.8254 24.9088 17.5697 24.1671 17.1477 23.4503C16.7257 22.7336 16.195 22.1414 15.5492 21.674C14.9034 21.2065 14.2001 20.87 13.4392 20.6643C12.6783 20.4586 11.9047 20.4025 11.1054 20.496C10.3062 20.5895 9.54533 20.8388 8.81003 21.2502C7.92128 21.7425 7.21795 22.397 6.70004 23.2197C6.18214 24.0424 5.88162 24.915 5.7985 25.8499V45.9566H0.0375962V27.2273C-0.0519185 26.1553 0.0184144 25.0957 0.248595 24.0487C0.478775 23.0016 0.843228 22.0043 1.34835 21.057C1.85346 20.1096 2.49285 19.237 3.26012 18.4392C4.02739 17.6414 4.92254 16.9558 5.93277 16.3949V16.4136Z" fill="#151617"/>
<path d="M49.258 31.565C49.258 31.8019 49.3411 32.0013 49.5074 32.1509C49.6736 32.3005 49.8782 32.3815 50.1212 32.3815V37.9785H49.6736C49.533 37.9785 49.3923 37.9723 49.2516 37.9536V45.9501L43.4843 46V36.3144C43.414 36.3642 43.3437 36.4016 43.2733 36.4141C41.8411 37.2119 40.3449 37.7105 38.7784 37.8975C37.2119 38.0845 35.6966 37.9847 34.2196 37.6045C32.7426 37.2243 31.3743 36.5699 30.1211 35.6475C28.8615 34.725 27.8257 33.572 27.0008 32.1759C26.1824 30.7984 25.6773 29.3462 25.4919 27.8192C25.3065 26.2922 25.4152 24.815 25.8052 23.3753C26.1952 21.9355 26.8666 20.6017 27.8129 19.3614C28.7592 18.1211 29.9356 17.1114 31.3487 16.3074C32.7809 15.5096 34.2771 15.0172 35.8436 14.8365C37.4101 14.6557 38.9255 14.7617 40.4025 15.1419C41.8795 15.5221 43.2478 16.1765 44.501 17.0989C45.7542 18.0214 46.7964 19.1682 47.6212 20.5456C48.1647 21.4681 48.5611 22.4092 48.8168 23.369C49.0726 24.3289 49.2069 25.2949 49.2261 26.2673H49.2516V31.5526L49.258 31.565ZM40.2938 21.1938C39.5585 20.7825 38.7912 20.5332 37.9856 20.4397C37.1799 20.3462 36.4063 20.4023 35.6518 20.608C34.8973 20.8136 34.2004 21.1502 33.5418 21.6177C32.8832 22.0851 32.3461 22.6772 31.9305 23.394C31.5149 24.1107 31.2528 24.8587 31.1569 25.644C31.061 26.4293 31.1121 27.1897 31.3167 27.9314C31.5213 28.6731 31.8602 29.3649 32.3398 30.0006C32.8193 30.6364 33.4267 31.1662 34.162 31.5713C34.8973 31.9764 35.6646 32.2319 36.4702 32.3254C37.2759 32.4189 38.0559 32.3628 38.8168 32.1572C39.5777 31.9515 40.2874 31.6149 40.9396 31.1475C41.5917 30.68 42.1352 30.0879 42.5508 29.3711C42.9664 28.6544 43.2286 27.9065 43.3245 27.1211C43.4204 26.3358 43.3692 25.5754 43.1646 24.8337C42.96 24.092 42.6212 23.4002 42.1288 22.7645C41.6365 22.1287 41.0291 21.599 40.2938 21.1938Z" fill="#151617"/>
<path d="M53.318 37.1559C52.2694 37.7542 51.1633 38.0347 49.9868 37.9973V32.3256H50.0124C50.2554 32.3256 50.46 32.2445 50.6262 32.0825C50.7924 31.9204 50.8756 31.721 50.8756 31.4841V26.7597C50.8436 25.7189 50.9459 24.6967 51.1889 23.6933C51.4318 22.6898 51.8091 21.7362 52.3142 20.8324C52.8193 19.9287 53.4523 19.0935 54.2132 18.3269C54.9741 17.5603 55.8436 16.8934 56.8219 16.3324C58.2541 15.5346 59.7503 15.0423 61.3168 14.8615C62.8833 14.6808 64.3987 14.7867 65.8757 15.1669C67.3527 15.5471 68.721 16.2015 69.9742 17.124C71.2274 18.0464 72.2696 19.1932 73.0944 20.5707C73.8105 21.7798 74.2836 23.0264 74.5074 24.3165C74.7312 25.6067 74.7504 26.8782 74.5586 28.1372C74.8719 27.5264 75.1149 26.8657 75.2939 26.1676C75.4729 25.4696 75.556 24.7466 75.556 23.9987C75.556 22.7708 75.3259 21.624 74.8719 20.552C74.4179 19.4799 73.7913 18.5326 72.9857 17.7161C72.1801 16.8996 71.2401 16.2389 70.166 15.7341C69.0918 15.2292 67.9409 14.9488 66.7197 14.8802V10C68.6442 10.0686 70.4473 10.4799 72.1289 11.2403C73.8105 12.0007 75.2811 13.0104 76.5343 14.2694C77.7811 15.5284 78.7722 16.9931 79.4947 18.6635C80.2172 20.3338 80.5816 22.1101 80.5816 24.0049C80.5816 25.8996 80.2044 27.7445 79.4563 29.446C78.7082 31.1476 77.6852 32.631 76.3872 33.89C75.0893 35.149 73.5803 36.1524 71.8412 36.8941C70.102 37.6358 68.2478 38.0035 66.2721 38.0035H62.3143C61.0227 37.9537 59.7759 37.7106 58.5802 37.2743C57.3846 36.838 56.2848 36.2335 55.2938 35.4481C55.0316 35.7909 54.7375 36.1026 54.405 36.383C54.0725 36.6635 53.7081 36.9253 53.3053 37.1621L53.318 37.1559ZM59.7119 21.2126C58.9766 21.624 58.3692 22.1475 57.8897 22.7833C57.4101 23.419 57.0713 24.1108 56.8667 24.8525C56.6621 25.5942 56.6109 26.3546 56.7068 27.1399C56.8027 27.9253 57.0585 28.6732 57.4805 29.3899C57.9025 30.1067 58.4396 30.6988 59.0917 31.1663C59.7439 31.6337 60.4536 31.9703 61.2145 32.176C61.9754 32.3816 62.7554 32.4377 63.5611 32.3442C64.3667 32.2508 65.134 32.0015 65.8693 31.5901C66.6046 31.1787 67.212 30.6552 67.6915 30.0194C68.1711 29.3837 68.51 28.6919 68.7146 27.9502C68.9128 27.2085 68.9703 26.4481 68.8744 25.6628C68.7785 24.8775 68.5227 24.1295 68.1007 23.4128C67.6787 22.696 67.1417 22.1039 66.4895 21.6365C65.8373 21.169 65.1276 20.8324 64.3667 20.6268C63.6058 20.4211 62.8258 20.365 62.0201 20.4585C61.2145 20.552 60.4472 20.8013 59.7119 21.2126Z" fill="#151617"/>
<path d="M96.8219 26.1177C96.8411 25.1828 96.9818 24.2417 97.2439 23.3068C97.5061 22.3719 97.8961 21.4619 98.4204 20.5706C98.9447 19.6669 99.5713 18.8628 100.307 18.1586C101.042 17.4543 101.841 16.8497 102.704 16.3573C103.567 15.8649 104.482 15.4847 105.441 15.2229C106.4 14.9612 107.378 14.8116 108.376 14.7742H108.638L110.236 14.7555V20.3774L108.376 20.3961C107.378 20.446 106.438 20.7264 105.543 21.225C104.654 21.7299 103.938 22.4404 103.395 23.3566C103.254 23.6122 103.126 23.8739 103.018 24.1357C102.909 24.3975 102.813 24.6593 102.743 24.9148H109.149C109.264 24.9148 109.392 24.9335 109.527 24.9647C110.364 25.0644 111.144 25.3075 111.86 25.6814C112.576 26.0554 113.197 26.5291 113.721 27.0963C114.245 27.6634 114.661 28.3241 114.968 29.0658C115.275 29.8075 115.428 30.5928 115.428 31.428C115.428 32.3317 115.256 33.1731 114.917 33.9585C114.578 34.7438 114.111 35.4294 113.516 36.0153C112.922 36.6011 112.225 37.0686 111.419 37.4051C110.614 37.7417 109.757 37.9225 108.849 37.9412H95.7158C94.6864 37.9412 93.6697 37.8165 92.6787 37.5734C91.6876 37.3304 90.7349 36.9564 89.8334 36.464C88.9318 35.9716 88.1006 35.3671 87.3334 34.6503C86.5661 33.9335 85.9075 33.1108 85.3704 32.1697C84.8142 31.2472 84.405 30.2999 84.1492 29.3213C83.8935 28.3428 83.772 27.358 83.772 26.3733V20.4709H89.5393V26.473C89.5584 26.9654 89.6288 27.4577 89.7631 27.9564C89.8973 28.455 90.0891 28.9162 90.3513 29.3587C90.9076 30.3123 91.662 31.0478 92.6083 31.5589C93.5546 32.07 94.5457 32.3317 95.5943 32.3504L109.22 32.2756C109.412 32.2071 109.565 32.0949 109.68 31.9453C109.795 31.7957 109.853 31.6212 109.853 31.4342C109.853 31.2472 109.802 31.0852 109.693 30.9481C109.584 30.8109 109.456 30.6988 109.303 30.6177H102.57V30.6427L96.8859 30.6177V30.5928L96.8347 26.124L96.8219 26.1177Z" fill="#DC2655"/>
<path d="M117.832 34.3698H117.858C117.769 35.2922 117.468 36.1586 116.944 36.975C116.419 37.7915 115.71 38.446 114.821 38.9446C114.277 39.25 113.708 39.4681 113.12 39.599C112.526 39.7237 111.937 39.7673 111.349 39.7237C110.914 39.6925 109.891 39.599 109.399 39.5492L109.501 45.2521C110.761 45.545 111.592 45.4391 112.922 45.3206C114.591 45.1773 116.183 44.6662 117.705 43.7999C118.715 43.2202 119.61 42.5284 120.377 41.7306C121.145 40.9328 121.784 40.0602 122.289 39.1129C122.794 38.1655 123.159 37.1745 123.376 36.1336C123.593 35.0928 123.67 34.0394 123.6 32.9674V21.4681L117.832 21.4182V34.3698Z" fill="#DC2655"/>
<path d="M124.661 13.8393C124.431 13.3095 124.124 12.8545 123.727 12.4618C123.331 12.0692 122.864 11.7576 122.327 11.5269C121.79 11.2963 121.208 11.1841 120.594 11.1841C119.981 11.1841 119.399 11.2963 118.849 11.5269C118.299 11.7576 117.819 12.0692 117.423 12.4618C117.027 12.8545 116.701 13.3157 116.464 13.8393C116.227 14.3628 116.112 14.93 116.112 15.5283C116.112 16.1267 116.227 16.6876 116.464 17.2174C116.701 17.7472 117.02 18.2022 117.423 18.5948C117.826 18.9875 118.299 19.2929 118.849 19.5173C119.399 19.7416 119.981 19.8476 120.594 19.8476C121.208 19.8476 121.784 19.7354 122.327 19.5173C122.871 19.2991 123.337 18.9875 123.727 18.5948C124.117 18.2022 124.431 17.7409 124.661 17.2174C124.891 16.6876 125 16.1267 125 15.5283C125 14.93 124.885 14.3691 124.661 13.8393Z" fill="#DC2655"/>
</svg>
