<svg width="19" height="18" viewBox="0 0 19 18" fill="none" xmlns="http://www.w3.org/2000/svg">
<path d="M9.5 9C11.9853 9 14 6.98528 14 4.5C14 2.01472 11.9853 0 9.5 0C7.01472 0 5 2.01472 5 4.5C5 6.98528 7.01472 9 9.5 9ZM12.5 4.5C12.5 6.15685 11.1569 7.5 9.5 7.5C7.84315 7.5 6.5 6.15685 6.5 4.5C6.5 2.84315 7.84315 1.5 9.5 1.5C11.1569 1.5 12.5 2.84315 12.5 4.5Z" fill="#3E4344"/>
<path d="M18.5 16.5C18.5 18 17 18 17 18H2C2 18 0.5 18 0.5 16.5C0.5 15 2 10.5 9.5 10.5C17 10.5 18.5 15 18.5 16.5ZM17 16.4948C16.9978 16.1246 16.7693 15.0157 15.7518 13.9982C14.7734 13.0198 12.9336 12 9.49998 12C6.06632 12 4.22653 13.0198 3.24815 13.9982C2.23063 15.0157 2.00214 16.1246 2 16.4948H17Z" fill="#3E4344"/>
</svg>
